<!-- original
    width="100px" height="100px" 
    viewBox="0 0 100 100" 
    enable-background="new 0 0 100 100"
 -->
<?xml-stylesheet type="text/css" href="../css/style.css"?>
<svg xmlns="http://www.w3.org/2000/svg" xmlns:xlink="http://www.w3.org/1999/xlink" version="1.1" 
    id="hop_white" 
    x="0px" y="0px" 
    width="75px" height="100px" 
    viewBox="20 10 60 80" 
    xml:space="preserve">

    <path fill="#14aa23"
          id="background" 
          d="m 52.266,67.956318 c 1.213,1.359 2.845809,2.887818 4.310809,3.990808 C 55.221809,75.353126 52.808,80.887 50,83.394 47.194,80.888 44.195574,74.924923 42.838574,71.520913 c 1.468,-1.105 3.681426,-2.202595 4.895426,-3.563595 0.341,0.29401 0.964809,-0.127022 1.321809,0.151978 l 0.799787,1.108404 1.232,-1.108404 c 0.358,-0.28 0.837404,0.142032 1.178404,-0.152978 z M 62.326,73.483 c 2.088,-3.188 3.351,-6.761 3.762,-10.449 -2.143,-0.908 -5.874852,-6.102321 -7.692852,-7.474321 -1.165,3.023 -3.014404,7.260043 -5.172404,9.728043 2.003,2.285 6.317256,6.790278 9.103256,8.195278 z M 54.294852,46.364466 c -0.536,0.327 -1.801022,0.786404 -2.360022,1.077404 C 52.869833,38.748609 50.308,49.303515 50,48.068274 l -1.647022,-0.337595 c -0.559,-0.291 -1.680617,-0.750405 -2.216617,-1.078405 -1.19,2.157 -2.196787,4.576213 -3.882787,6.324213 1.279,4.07 4.486426,11.506513 7.745426,14.418513 3.259,-2.911 5.605,-6.589 6.883,-10.66 -1.688,-1.749 -1.396148,-8.212534 -2.587148,-10.370534 z M 33.913,63.033 c 0.413,3.689 1.673,7.263 3.761,10.45 2.787,-1.406 6.953852,-5.623469 8.956852,-7.908469 -2.156,-2.468 -4.147809,-7.283661 -5.312809,-10.305661 C 39.500043,56.64287 36.057,62.125 33.913,63.033 Z M 45.18783,44.318274 c -1.814,-1.503 -3.733808,-2.649382 -5.125808,-4.569382 -3.142,2.068 -7.198618,3.730808 -10.860618,4.395808 C 29.064404,48.3117 29.87,55.787 31.891,59.552 37.218,57.424 42.54183,49.336274 45.18783,44.318274 Z m 9.62234,0.578618 c 2.647,5.018 7.97083,12.527108 13.29783,14.654108 2.021,-3.764 2.398383,-11.2403 2.261383,-15.4063 -3.664,-0.665 -7.289405,-2.616617 -10.431405,-4.685617 -1.392,1.922 -3.312808,3.934809 -5.127808,5.437809 z M 50.555957,17.711191 C 50.206018,16.66412 51.104,16 50,16 c -1.104,0 -0.411552,0.462787 -0.411552,1.566787 l 0,4.176404 C 37.977448,22.707191 27.095,32.248 26.09,43.847 c 4.569,-0.391 8.871,-2.063 12.545,-4.896 l 1.76,-1.357 1.165,1.893 c 2.1,3.413 5.003,6.241 8.44,8.231 3.437,-1.99 6.341,-4.818 8.44,-8.231 l 1.164,-1.893 1.76,1.357 c 3.676,2.833 7.97701,4.506 12.54601,4.896 C 72.906,32.249 62.311371,22.708191 50.700371,21.743191 c -0.988788,2.490633 0.293307,-2.722268 -0.144414,-4.032 z"/>

    <path fill="#ffffff" d="M76,45.937c0-13.686-10.576-24.894-24-25.916V16c0-1.104-0.896-2-2-2s-2,0.896-2,2v4.021c-13.424,1.022-24,12.23-24,25.916  c0.821,0,1.63-0.046,2.431-0.121C25.319,52.234,26.686,58.688,30,64c0.989-0.322,1.955-0.708,2.898-1.145  C33.365,67.66,35.146,72.209,38,76c1.211-0.515,2.377-1.126,3.495-1.816C43.162,78.893,46.14,82.981,50,86  c3.86-3.02,6.822-7.117,8.488-11.827C59.611,74.867,60.783,75.482,62,76c2.854-3.791,4.636-8.339,5.103-13.145  C68.045,63.293,69.011,63.678,70,64c3.313-5.312,4.681-11.766,3.568-18.184C74.37,45.89,75.18,45.937,76,45.937z M50,23.937  c10.607,0,19.486,7.546,21.548,17.552c-3.24-0.664-6.282-2.056-8.962-4.122l-3.521-2.713l-2.329,3.785  c-1.718,2.793-4.022,5.158-6.736,6.932c-2.714-1.773-5.019-4.139-6.737-6.932l-2.329-3.786l-3.521,2.714  c-2.679,2.065-5.722,3.458-8.962,4.122C30.514,31.482,39.392,23.937,50,23.937z M53.596,48.169c0.582,1.598,1.311,3.099,2.154,4.505  c-0.644,4.487-2.627,8.639-5.75,11.936c-3.123-3.297-5.106-7.448-5.75-11.937c0.844-1.405,1.573-2.906,2.154-4.504  c0.044-0.122,0.075-0.246,0.117-0.368C47.619,48.619,48.776,49.362,50,50c1.224-0.638,2.381-1.381,3.479-2.199  C53.521,47.923,53.552,48.047,53.596,48.169z M31.844,58.934c-1.9-4.381-2.307-9.22-1.177-13.869  c3.382-0.897,6.496-2.452,9.19-4.529c0.968,1.573,2.102,3.03,3.37,4.359c-0.166,0.64-0.352,1.277-0.582,1.907  C40.7,52.146,36.847,56.434,31.844,58.934z M39.395,70.793c-1.706-3.147-2.575-6.626-2.609-10.163  c1.555-1.076,2.999-2.322,4.298-3.729c0.917,3.093,2.393,5.94,4.312,8.436C43.764,67.498,41.741,69.353,39.395,70.793z M50,80.609  c-2.416-2.549-4.139-5.612-5.098-8.945c1.155-1.004,2.22-2.117,3.193-3.319C48.705,68.925,49.336,69.48,50,70  c0.664-0.52,1.295-1.076,1.904-1.656c0.973,1.201,2.038,2.314,3.193,3.319C54.138,74.995,52.416,78.06,50,80.609z M60.605,70.793  c-2.346-1.439-4.367-3.294-6-5.455c1.917-2.494,3.398-5.34,4.314-8.433c1.299,1.405,2.741,2.65,4.295,3.725  C63.181,64.167,62.312,67.646,60.605,70.793z M68.156,58.934c-5.003-2.5-8.856-6.788-10.802-12.133  c-0.229-0.63-0.416-1.267-0.581-1.907c1.269-1.329,2.402-2.786,3.37-4.359c2.694,2.077,5.809,3.632,9.19,4.529  C70.463,49.714,70.057,54.553,68.156,58.934z"/>
</svg>