<svg viewBox="0 0 100 100">
    <path
        d="M63.895,94.198c0,0-0.08-38.878-0.003-42.681c0.078-3.803-0.854-6.829-3.182-9.778c-2.327-2.949-2.889-4.733-3.026-7.062   c-0.154-2.639-0.062-6.98-0.233-9.623c-0.31-4.812-0.94-8.915-1.416-10.961c-0.801-3.443-0.979-4.083-0.522-4.481   c0.465-0.408,0.62-0.447,0.543-1.145c-0.043-0.38-0.297-1.178-0.495-1.889H44.442c-0.198,0.711-0.453,1.509-0.495,1.889   c-0.078,0.698,0.078,0.737,0.542,1.145c0.457,0.399,0.277,1.039-0.523,4.481c-0.475,2.046-1.105,6.149-1.416,10.961   c-0.171,2.643-0.079,6.983-0.232,9.623c-0.138,2.329-0.7,4.112-3.028,7.062c-2.327,2.949-3.259,5.975-3.181,9.778   s-0.004,42.681-0.004,42.681s-0.383,3.491,2.875,4.655H50h11.02C64.279,97.689,63.895,94.198,63.895,94.198z M60.392,84.351H39.61   V51.596h20.781V84.351z"/>
    <rect
        fill="currentColor"
        x="39" y="46"
        width="22" height="48" />
</svg>
