<svg viewBox="0 0 100 100">
    <path
        d="M50.001,91.58L50.001,91.58c-21.832-0.005-26.214-0.795-26.391-0.828l-0.164-0.031l-0.145-0.082  c-0.822-0.471-0.945-1.089-0.945-1.414c0-0.873,0.787-1.367,0.945-1.459l0.23-0.132h0.266c14.334,0,20.284-4.709,20.284-7.229  c0-0.23,0.007-2.396,0.017-5.336c-20.047-7.289-27.875-16.043-27.875-31.072c0-15.059,11.643-34.285,12.139-35.096l0.292-0.479  h42.692L71.639,8.9c0.494,0.811,12.139,20.037,12.139,35.096c0,15.029-7.827,23.783-27.875,31.072  c0.011,2.939,0.019,5.104,0.019,5.336c0,2.521,5.949,7.229,20.283,7.229h0.267l0.23,0.132c0.156,0.092,0.943,0.586,0.943,1.459  c0,0.325-0.123,0.943-0.944,1.414l-0.146,0.082l-0.164,0.031C76.215,90.785,71.832,91.575,50.001,91.58z M30.542,89.266  c3.928,0.166,10.053,0.312,19.459,0.314c9.403-0.002,15.528-0.148,19.458-0.314c-11.197-1.312-15.539-5.838-15.539-8.861  c0-0.25-0.009-2.742-0.021-6.033l-0.002-0.708l0.666-0.237c19.584-6.994,27.215-15.246,27.215-29.429  c0-13.228-9.758-30.496-11.562-33.574h-40.43C27.98,13.5,18.223,30.775,18.223,43.995c0,14.182,7.63,22.433,27.214,29.429  l0.666,0.237l-0.002,0.707c-0.011,3.292-0.019,5.784-0.019,6.036C46.082,83.428,41.739,87.952,30.542,89.266z"/>
    <path
        fill="currentColor"
        d="M21.319,43.659c0,13.084,7.223,20.442,24.396,26.575c0,0.055-0.001,0.104-0.002,0.16h8.575c0-0.056,0-0.105,0-0.16  c17.171-6.133,24.396-13.491,24.396-26.575c0-5.604-1.926-11.956-4.127-17.39c0,0-4.647-1.78-23.912-0.837  c-6.046,0.296-25.195,0.837-25.195,0.837C23.245,31.703,21.319,38.055,21.319,43.659z"/>
</svg>
