<svg xmlns="http://www.w3.org/2000/svg" xmlns:xlink="http://www.w3.org/1999/xlink" version="1.1" id="Your_Icon" x="0px" y="0px" width="100px" height="100px" viewBox="5 5 90 90" enable-background="new 0 0 100 100" xml:space="preserve">
<g>
	<path fill="rgb(208,178,42)" d="M25.823,46.866v35.601c0,9.618,48.313,9.618,48.313,0V46.866c0,0-5.591-6.027-14.604-6.027   c-9.01,0-14.027,6.609-22.923,6.609C27.714,47.448,25.823,46.866,25.823,46.866z"/>
</g>
<path fill="#ffffff" d="M50.001,94.777c-13.366,0-28.974-2.404-28.974-9.18v-2.589c-1.046-0.646-1.711-1.8-1.711-3.054  s0.665-2.406,1.711-3.053v-14.75c-1.046-0.646-1.711-1.8-1.711-3.055c0-1.254,0.665-2.406,1.711-3.053v-14.75  c-1.046-0.647-1.711-1.8-1.711-3.054c0-1.258,0.67-2.414,1.722-3.059c0.364-4.792,10.014-13.377,21.442-17.266  c-0.019-0.147-0.029-0.296-0.029-0.445c0-1.248,0.631-2.372,1.654-3.024v-2.934c-0.787-0.654-1.256-1.674-1.256-2.791  c0-1.93,1.417-3.5,3.159-3.5h7.988c1.741,0,3.158,1.57,3.158,3.5c0,1.119-0.47,2.139-1.256,2.792v2.971  c0.982,0.66,1.588,1.771,1.588,2.985c0,0.142-0.009,0.283-0.025,0.424c11.459,3.881,21.14,12.48,21.504,17.289  c1.051,0.646,1.72,1.801,1.72,3.058c0,1.253-0.664,2.406-1.709,3.053v14.752c1.045,0.646,1.709,1.799,1.709,3.052  c0,1.254-0.664,2.406-1.709,3.054v14.752c1.045,0.646,1.709,1.799,1.709,3.052s-0.664,2.405-1.709,3.053v2.59  C78.975,92.373,63.366,94.777,50.001,94.777z M46.007,7.223c-0.628,0-1.159,0.687-1.159,1.5c0,0.602,0.287,1.146,0.732,1.386  l0.524,0.284v5.346l-0.636,0.249c-0.619,0.242-1.018,0.824-1.018,1.484c0,0.225,0.053,0.451,0.156,0.672l0.485,1.035l-1.09,0.344  c-11.579,3.652-20.976,12.256-20.976,15.937v1.051l-0.657,0.24c-0.63,0.23-1.054,0.83-1.054,1.492c0,0.663,0.424,1.264,1.054,1.495  l0.657,0.24v17.391l-0.657,0.239c-0.63,0.229-1.054,0.829-1.054,1.492c0,0.664,0.423,1.265,1.054,1.494l0.657,0.239v17.393  l-0.657,0.239c-0.63,0.229-1.054,0.829-1.054,1.492s0.423,1.264,1.054,1.493l0.657,0.239v3.91c0,4.026,11.848,7.18,26.974,7.18  c15.125,0,26.974-3.153,26.974-7.18v-3.909l0.656-0.24c0.63-0.23,1.053-0.83,1.053-1.493c0-0.662-0.423-1.262-1.053-1.492  l-0.656-0.24V60.832l0.656-0.24c0.63-0.23,1.053-0.831,1.053-1.494c0-0.662-0.423-1.262-1.053-1.492l-0.656-0.24v-17.39l0.656-0.24  c0.63-0.23,1.053-0.831,1.053-1.494c0-0.662-0.423-1.262-1.053-1.493l-0.656-0.24v-1.05c-0.001-3.694-9.423-12.311-21.03-15.954  l-1.082-0.34l0.473-1.031c0.1-0.217,0.15-0.44,0.15-0.662c0-0.644-0.384-1.223-0.978-1.474l-0.61-0.258V10.39l0.527-0.283  c0.442-0.238,0.729-0.781,0.729-1.385c0-0.813-0.53-1.5-1.158-1.5H46.007z"/>
</svg>